<svg xmlns="http://www.w3.org/2000/svg" fill="none" viewBox="0 0 174 222">
  <g clip-path="url(#a)">
    <path fill="#FF9D42" d="m41.364 78.085-3.065-.032a.792.792 0 0 1-.786-.801c0-.44.362-.786.802-.786a.59.59 0 0 1 .173.016l2.986.722a.459.459 0 0 1 .33.535.424.424 0 0 1-.44.33v.016ZM50.15 79.201l-5.17-.299a.78.78 0 0 1-.74-.833.78.78 0 0 1 .833-.738h.11l5.077.99a.445.445 0 0 1 .346.519.428.428 0 0 1-.456.345v.016ZM50.056 86.54 41.6 88.835a.785.785 0 0 1-.959-.55.785.785 0 0 1 .55-.959h.063l8.613-1.603a.421.421 0 0 1 .503.346.437.437 0 0 1-.314.503v-.032ZM86.52 11.005l-.346-9.477a.79.79 0 0 1 .754-.817.79.79 0 0 1 .817.754v.063l-.346 9.477c0 .236-.204.425-.455.425-.236 0-.409-.189-.425-.425ZM61.466 42.062l-13.94-14.68a.793.793 0 0 1 .03-1.115.792.792 0 0 1 1.117.031h.015l13.438 15.167a.441.441 0 0 1-.031.613.443.443 0 0 1-.613-.032l-.016.016ZM68.209 49.417l-3.458-3.253a.792.792 0 0 1-.031-1.116.792.792 0 0 1 1.116-.031l.078.078 2.94 3.725a.418.418 0 0 1-.08.613.413.413 0 0 1-.565-.031v.015ZM75.785 43.602 59.282 21.693a.782.782 0 0 1 .157-1.1.782.782 0 0 1 1.1.157l15.937 22.334a.445.445 0 0 1-.094.612.428.428 0 0 1-.597-.094ZM70.315 15.108l-2.688-4.92a.796.796 0 0 1 .315-1.069.796.796 0 0 1 1.069.315c0 .031.031.063.047.094l2.059 5.202a.423.423 0 0 1-.252.566.44.44 0 0 1-.55-.204v.016ZM76.54 28.341l-3.977-7.638a.774.774 0 0 1 .33-1.053c.377-.189.864-.048 1.053.33 0 .015.016.031.031.063l3.348 7.92c.094.22 0 .488-.236.567a.444.444 0 0 1-.566-.205l.016.016ZM81.411 22.259 77.53 6.448a.77.77 0 0 1 .582-.943.781.781 0 0 1 .943.581v.032l3.206 15.968a.442.442 0 0 1-.864.189l.015-.016ZM59.266 52.828l-15.308-9.713a.787.787 0 0 1-.236-1.085.787.787 0 0 1 1.084-.236h.032l14.93 10.31a.434.434 0 0 1 .11.614.447.447 0 0 1-.596.125l-.016-.015ZM54.142 70.462l-21.014-4.29c-.424-.095-.707-.503-.612-.928.094-.424.502-.707.927-.612h.031l20.857 4.966a.459.459 0 0 1 .33.534.434.434 0 0 1-.519.33ZM45.592 57.087l-7.497-2.625a.796.796 0 0 1-.487-1.006.795.795 0 0 1 1.006-.487c.016 0 .047.016.063.032l7.23 3.269c.22.094.314.361.22.581a.46.46 0 0 1-.55.236h.015ZM64.468 64.647 50.873 59.57a.773.773 0 0 1-.456-1.006.773.773 0 0 1 1.006-.455h.032l13.328 5.736c.22.095.33.346.235.582a.435.435 0 0 1-.55.236v-.016ZM119.148 79.578l7.576-1.305c.424-.078.833.22.911.645.079.424-.22.833-.644.911h-.063l-7.67.613a.439.439 0 0 1-.471-.408.457.457 0 0 1 .361-.472v.016ZM121.773 87.012l13.737 1.241c.44.032.754.425.707.85-.047.424-.424.754-.849.706h-.047l-13.658-1.933a.435.435 0 0 1 .094-.864h.016ZM122.26 30.903l2.216-2.923a.796.796 0 0 1 1.1-.158.797.797 0 0 1 .063 1.21l-2.734 2.452a.442.442 0 0 1-.613-.031.471.471 0 0 1-.032-.566v.016ZM105.207 49.48l11.521-12.541a.793.793 0 0 1 1.116-.048.793.793 0 0 1 .047 1.116h-.016l-12.023 12.086a.427.427 0 0 1-.613 0 .427.427 0 0 1 0-.613h-.032ZM100.24 40.113l10.562-14.994a.785.785 0 0 1 1.101-.188c.361.251.44.738.188 1.1v.031l-11.143 14.585a.43.43 0 0 1-.613.079.443.443 0 0 1-.095-.597v-.016ZM99.329 21.017l7.057-14.412a.786.786 0 0 1 1.053-.362c.393.189.55.66.361 1.053v.032l-7.701 14.098c-.11.22-.377.283-.597.173a.451.451 0 0 1-.189-.582h.016ZM95.195 29.033l2.043-4.715a.796.796 0 0 1 1.038-.409.796.796 0 0 1 .408 1.037c0 .032-.031.063-.047.095l-2.656 4.4a.434.434 0 0 1-.597.142.428.428 0 0 1-.173-.55h-.016ZM91.659 19.54l3.536-14.302a.805.805 0 0 1 .959-.582c.424.11.676.534.581.959v.031L92.507 19.76c-.062.236-.314.361-.55.298a.43.43 0 0 1-.298-.518ZM115.879 51.728l15.418-10.61a.788.788 0 0 1 1.101.205.787.787 0 0 1-.205 1.1h-.031l-15.796 10.043a.434.434 0 0 1-.597-.141.432.432 0 0 1 .126-.597h-.016ZM117.891 71.216l17.572-4.793a.773.773 0 0 1 .958.55.773.773 0 0 1-.55.959h-.031l-17.745 4.117a.435.435 0 0 1-.519-.33.432.432 0 0 1 .315-.518v.016ZM130.637 55.924l4.731-2.279a.8.8 0 0 1 1.053.362.8.8 0 0 1-.361 1.053c-.032 0-.063.031-.095.031l-4.998 1.635a.43.43 0 0 1-.55-.283.458.458 0 0 1 .22-.535v.016ZM113.82 62.667l13.045-5.611a.784.784 0 0 1 1.038.409.779.779 0 0 1-.409 1.037h-.032l-13.296 4.966a.455.455 0 0 1-.566-.251.443.443 0 0 1 .236-.55h-.016Z"/>
    <path fill="#F15730" d="M100.539 65.496c-1.776 7.78-4.024 10.043-5.265 9.383-.094-.048-7.371 6.993-7.371 6.993l2.97 2.97a7.399 7.399 0 0 1 0 10.468 7.365 7.365 0 0 1-5.234 2.17 7.365 7.365 0 0 1-5.234-2.17 7.399 7.399 0 0 1 0-10.467l5.234-5.234s8.708-8.314 11.332-15.308c.11-.314.22-.629.299-.943.063-.189.126-.377.173-.566 2.562-10.106-3.144-21.673-11.08-29.375 1.602 9.886-.268 22.193-7.482 29.941-2.405-1.603-1.336-5.076-.534-6.68-7.702 4.433-12.244 16.77-8.378 27.238-3.426-2.892-4.903-6.743-5.532-10.924-3.27 6.02-4.951 12.81-4.448 19.128h-.031c0 .173.047.346.062.518.032.3.079.582.11.865.063.409.11.817.189 1.226.094.471.189.959.299 1.414.047.173.094.362.141.535.126.487.267.958.44 1.43 1.226 3.678 3.27 7.135 6.193 10.043 4.872 4.872 11.347 7.56 18.232 7.56 6.884 0 13.359-2.688 18.231-7.56 4.055-4.055 6.554-9.226 7.293-14.805.047-.299.079-.613.11-.928 0-.11.031-.22.047-.33.88-9.115-2.986-19.206-10.766-26.608v.016Z"/>
    <path fill="url(#b)" d="m95.29 74.879-7.388 6.994-2.263-2.264 6.523-7.276 2.86 2.341"/>
    <path fill="url(#c)" d="M73.27 86.084c-5.878-2.939-8.016-7.748-8.817-13.107-1.62 10.121-.346 21.296 14.113 24.046.818.865-4.668-10.97-5.28-10.954l-.016.015Z" opacity=".8"/>
    <path fill="url(#d)" d="M78.158 57.103c.063-.142.126-.299.188-.425l-.282.189.094.251v-.015Z"/>
    <path fill="url(#e)" d="m79.997 62.07 2.53 9.256c13.69-11.52 10.436-27.095 3.835-37.908 1.509 9.351-.094 20.871-6.365 28.651Z" opacity=".8"/>
    <path fill="url(#f)" d="m95.84 74.989-.786.958.66 19.128c17.572-10.39 7.497-24.456 4.841-29.58-1.352 5.942-3.254 9.132-4.7 9.494h-.015Z" opacity=".8"/>
    <path fill="url(#g)" d="m79.997 85.079 3.394-3.238s-3.756-19.316-4.51-18.483c-2.405-1.603-1.336-5.077-.535-6.68-6.082 7.183-6.837 19.646 1.65 28.4Z" opacity=".8"/>
  </g>
  <g fill="#fff" clip-path="url(#h)">
    <path d="m12.396 211.296-2.49 8.6H7.556l.553-2.22-1.328-2.635-.055-.361-.083.361-1.328 2.635.553 2.22H3.516l-2.49-8.6-.554-1.11H3.82l-.138 1.11.83 3.051v.333l.138-.499 2.02-4.023h.415l2.02 4.023.11.499v-.333l.857-3.051-.138-1.11h3.043l-.553 1.11h-.027ZM22.716 219.923l.138-1.109-.22-.832-.14-.139-.69.333h-.914l-.692-.333-.138.139-.221.832.138 1.109h-3.182l.554-1.109 1.936-7.712-.22-.916h4.702l-.22.916 1.936 7.712.553 1.109h-3.403.083Zm-1.3-7.296-.056-.499-.083.499-.664 2.858.111.277.277.139h.691l.277-.139.11-.277-.663-2.858ZM35.858 219.923H32.04l-.968-.971-.415-.832v-.555l2.213-1.109v.776l.415.417h.968l.415-.222.221-.416v-.639l-.36-.332-2.157-.5-1.245-1.248v-2.303l1.798-1.803h3.735l.886 2.636-1.19-.417H34.53l-.415.222-.221.416v.278l.276.277 2.158.5 1.328 1.331v2.719l-1.798 1.803v-.028ZM48.225 219.924l.332-1.11v-2.913l-.138-.139-.415.222h-.83l-.415-.222-.139.139v2.913l.332 1.11h-3.32l.332-1.11v-7.49l-.332-1.11h3.32l-.332 1.11v1.803l.139.277.415.194h.83l.415-.194.138-.277v-1.803l-.332-1.11h3.32l-.36 1.11v7.49l.36 1.11h-3.32ZM57.77 219.924l.36-1.11v-7.49l-.36-1.11h3.403l-.332 1.11v7.49l.332 1.11H57.77ZM72.655 219.924l.276-1.11v-.278l-2.628-3.967-.277-.693.056.693v4.245l.332 1.11H67.37l.332-1.11v-7.49l-.415-1.11h2.988l2.435 3.662.277.666-.083-.666v-2.525l-.332-1.109h2.988l-.332 1.109v7.491l.332 1.109h-2.905v-.027ZM89.172 215.318v2.913l-.554.278-1.383 1.387H83.5l-1.798-1.804v-5.964l1.936-1.942h4.427l.94 2.857-1.66-.554H85.63l-.83.416-.332.693v3.191l.277.554.553.278h.913l.415-.416v-1.609l-.636-1.249h3.68l-.498.971ZM100.709 212.489h-1.08l-.138.138v5.826l.47 1.471h-3.679l.498-1.471v-5.826l-.138-.138h-1.08l-1.438.499.94-2.774h6.17l.941 2.774-1.439-.499h-.027ZM113.325 219.924h-4.289l-1.798-1.804v-6.103l1.798-1.803h4.289l1.798 1.803v6.103l-1.798 1.804Zm-.969-6.742-.276-.555-.554-.277h-.691l-.554.277-.276.555v3.607l.276.555.554.277h.691l.554-.277.276-.555v-3.607ZM126.522 219.924l.276-1.11v-.278l-2.628-3.967-.277-.693.056.693v4.245l.359 1.11h-3.043l.332-1.11v-7.49l-.415-1.11h2.988l2.435 3.662.276.666-.083-.666v-2.525l-.332-1.109h2.988l-.332 1.109v7.491l.332 1.109h-2.905l-.027-.027ZM137.948 221.033l-1.383.693h-.913l.221-.416.83-.416.277-.555v-.416h-.83l-.692-.693v-1.665l.692-.693h1.798l.692.693v2.081l-.692 1.387ZM158.56 219.924h-6.031l.332-1.11v-7.49l-.332-1.11h6.031l1.937 1.942v5.826l-1.937 1.942Zm-.83-6.52-.332-.693-.692-.333h-.913l-.138.138v4.939l.221.221h.83l.692-.332.332-.694v-3.246ZM173.085 218.953l-.968.971h-3.597l-1.937-1.942v-5.826l1.937-1.942h3.735l.941 2.857-1.66-.555h-.941l-.83.417-.332.693v3.052l.277.555.553.277h.553l.471-.499v-.694l2.213 1.11v.693l-.415.833ZM17.487 159.113v1.831c0 4.3-.775 9.765-8.549 9.765-5.755.028-8.245-3.051-8.245-9.293v-16.673c0-5.909 2.933-9.016 8.383-9.016 7.166 0 8.328 4.716 8.328 9.182v2.136H10.82v-2.885c0-1.859-.387-2.83-1.77-2.83-1.384 0-1.771.888-1.771 2.83v17.977c0 1.803.304 3.052 1.77 3.052 1.467 0 1.827-1.055 1.827-3.191v-2.829h6.584l.028-.056ZM40.893 145.325v15.758c0 6.741-3.154 9.626-9.102 9.626-5.949 0-8.522-2.968-8.522-9.571v-15.979c0-6.575 3.597-9.432 8.826-9.432 5.229 0 8.798 2.829 8.798 9.598Zm-11.011-.749v17.367c0 2.108.719 3.19 2.185 3.19 1.467 0 2.214-.999 2.214-3.218v-17.367c0-2.136-.581-3.218-2.214-3.218-1.383 0-2.158.999-2.158 3.246h-.027ZM47.422 170.21v-33.984h7.221c1.08 4.134 4.482 19.53 4.731 21.028h.166c-.36-4.521-.58-10.708-.58-15.452v-5.576h6.058v33.984h-7.276c-.692-3.246-4.399-20.807-4.62-21.916h-.166c.249 3.995.442 10.764.442 16.09v5.798H47.45l-.028.028ZM80.623 161.804c0 5.132-.637 8.878-7.25 8.878-.968 0-2.213-.111-2.932-.222v-5.438c.36.028.885.083 1.466.083 1.716 0 2.186-.554 2.186-2.58v-26.299h6.53v25.578ZM93.986 136.226v25.883c0 1.97.608 3.052 2.075 3.052 1.577 0 2.047-1.193 2.047-3.052v-25.883h6.585v25.467c0 6.02-2.767 8.989-8.77 8.989-6.004 0-8.55-2.886-8.55-9.044v-25.412h6.613ZM118.166 155.451v14.759h-6.501v-33.984h8.466c5.671 0 8.493 2.497 8.493 8.434v1.22c0 4.855-1.936 6.298-3.375 6.963 2.103 1.027 3.099 2.58 3.099 7.324 0 3.274-.056 8.24.221 10.015h-6.308c-.415-1.526-.387-5.964-.387-10.292 0-3.828-.443-4.467-2.905-4.467h-.775l-.028.028Zm0-5.16h.803c2.185 0 3.071-.693 3.071-3.856v-1.637c0-2.275-.471-3.412-2.85-3.412h-1.024v8.905ZM148.627 155.202h-6.999v9.265h8.189l-.775 5.743h-13.944v-33.984h13.889v5.798h-7.359v7.435h6.999v5.743ZM155.212 136.226h8.023c6.972 0 9.379 3.19 9.379 10.237v12.761c0 5.854-1.245 10.986-8.936 10.986h-8.466v-33.984Zm6.529 28.713h1.273c2.545 0 2.988-1.665 2.988-4.328v-15.202c0-2.497-.553-3.884-3.016-3.884h-1.217v23.414h-.028ZM24.349 183.11l-4.455 15.813h-5.256l-2.13-8.933-2.103 8.933h-5.23L.722 183.11H6.09l1.936 8.822 1.937-8.822h5.146l1.937 8.822 1.936-8.822h5.368ZM32.233 198.923H27.06V183.11h5.174v15.813ZM47.782 187.132h-3.735v11.763h-5.173v-11.763h-3.708v-4.022h12.589v4.022h.027ZM65.378 198.923h-5.173v-5.826h-4.289v5.826h-5.173V183.11h5.173v5.715h4.289v-5.715h5.173v15.813ZM89.116 197.203c-.58.582-2.158 1.997-5.588 1.997-4.676 0-8.439-2.885-8.439-8.156 0-5.271 3.763-8.156 8.439-8.156 3.541 0 5.256 1.498 5.256 1.498l-1.383 4.355s-1.605-1.387-3.541-1.387c-1.937 0-3.597 1.138-3.597 3.607 0 2.469 1.77 3.551 3.597 3.551 1.826 0 3.07-.749 3.762-1.443l1.494 4.134ZM107.376 198.923h-5.588l-.609-2.22h-4.51l-.58 2.22H90.72l5.478-15.813h5.699l5.478 15.813Zm-7.276-6.187-1.162-4.244-1.162 4.244h2.324ZM124.364 198.923h-5.949l-2.517-5.271h-.664v5.271h-5.174V183.11h6.861c1.937 0 3.431.333 4.565 1.137 1.135.805 1.937 2.164 1.937 3.884 0 3.218-1.937 4.356-2.628 4.772l3.541 5.992.028.028Zm-6.696-11.624c-.221-.194-.581-.305-1.134-.305h-1.3v2.746h1.3c.581 0 .941-.111 1.134-.277.249-.194.581-.416.581-1.11 0-.693-.332-.915-.581-1.082v.028ZM138.391 198.923h-11.427V183.11h11.178v4.078h-6.059v1.72h5.699v4.05h-5.699v1.831h6.28v4.134h.028ZM153.497 198.923h-5.174V183.11h5.174v15.813ZM172.67 198.923h-5.367l-4.787-8.822s.111 1.72.111 2.857v5.965h-5.035V183.11h5.588l4.565 8.822s-.11-1.72-.11-2.858v-5.964h5.035v15.813Z"/>
  </g>
  <defs>
    <linearGradient id="b" x1="91.077" x2="86.409" y1="77.975" y2="72.411" gradientUnits="userSpaceOnUse">
      <stop stop-color="#F15730"/>
      <stop offset=".01" stop-color="#F05530"/>
      <stop offset=".22" stop-color="#E13D30"/>
      <stop offset=".45" stop-color="#D72D30"/>
      <stop offset=".69" stop-color="#D12330"/>
      <stop offset="1" stop-color="#D02030"/>
    </linearGradient>
    <linearGradient id="c" x1="63.179" x2="77.152" y1="85.031" y2="85.031" gradientUnits="userSpaceOnUse">
      <stop stop-color="#D02030"/>
      <stop offset=".07" stop-color="#D32630"/>
      <stop offset=".43" stop-color="#E34030"/>
      <stop offset=".75" stop-color="#ED5130"/>
      <stop offset="1" stop-color="#F15730"/>
    </linearGradient>
    <linearGradient id="d" x1="78.064" x2="78.346" y1="56.898" y2="56.898" gradientUnits="userSpaceOnUse">
      <stop offset=".48" stop-color="#F15730"/>
      <stop offset="1" stop-color="#D02030"/>
    </linearGradient>
    <linearGradient id="e" x1="79.006" x2="91.58" y1="53.205" y2="51.287" gradientUnits="userSpaceOnUse">
      <stop offset=".31" stop-color="#F15730"/>
      <stop offset="1" stop-color="#D02030"/>
    </linearGradient>
    <linearGradient id="f" x1="95.054" x2="105.836" y1="80.285" y2="80.285" gradientUnits="userSpaceOnUse">
      <stop stop-color="#F15730"/>
      <stop offset="1" stop-color="#D02030"/>
    </linearGradient>
    <linearGradient id="g" x1="73.71" x2="79.918" y1="70.886" y2="70.886" gradientUnits="userSpaceOnUse">
      <stop stop-color="#D02030"/>
      <stop offset=".07" stop-color="#D32630"/>
      <stop offset=".43" stop-color="#E34030"/>
      <stop offset=".75" stop-color="#ED5130"/>
      <stop offset="1" stop-color="#F15730"/>
    </linearGradient>
    <clipPath id="a">
      <path fill="#fff" d="M32.5.727h104v115h-104z"/>
    </clipPath>
    <clipPath id="h">
      <path fill="#fff" d="M.5 135.727h173v86H.5z"/>
    </clipPath>
  </defs>
</svg>
