<svg xmlns="http://www.w3.org/2000/svg" viewBox="0 0 39.468 38.064">
  <path d="M10.978,.604l.055-.06c.478-.313,1.153-.235,1.497,.201,.362,.416,.276,1.033-.202,1.346L.839,10.04c-.191,.125-.476,.11-.632-.045-.178-.171-.142-.451,.027-.594L10.981,.641l-.003-.037ZM.921,26.361l9.598,9.81,.065,.05c.343,.436,.258,1.053-.22,1.366-.456,.33-1.131,.252-1.475-.184L.181,26.916c-.137-.174-.12-.434,.049-.577,.188-.162,.494-.13,.65,.025l.04-.003ZM22.225,13.919l2.067-.516-.319,1.999-.502,3.101,15.285-1.27c.282-.02,.558,.163,.617,.418,.04,.274-.164,.529-.462,.605l-16.981,2.979-1.898,.338,.293-1.812,.472-2.951-13.393,1.967c-.279,.057-.534-.11-.633-.361-.081-.271,.102-.543,.4-.619l15.054-3.876Z" fill="#faa31f"/>
</svg>