<svg xmlns="http://www.w3.org/2000/svg" fill="none" viewBox="0 0 261 50">
  <path fill="#fff" d="m175.781 20.145-2.739 1.25a1.833 1.833 0 0 0-1.697-1.332.912.912 0 0 0-1.05.758c0 .054-.009.11-.009.155 0 1.825 5.622 1.634 5.622 5.75 0 2.492-1.77 4.28-4.718 4.28a4.684 4.684 0 0 1-4.564-3.221l2.738-1.36a2.358 2.358 0 0 0 2.026 1.497c.785 0 1.187-.347 1.187-.913 0-1.826-5.577-1.634-5.577-5.951 0-2.428 1.753-4.007 4.427-4.007a4.439 4.439 0 0 1 4.354 3.094ZM181.449 20.648h1.716v2.6h-1.716v3.715c0 .913.593 1.096 1.25 1.096h.539v2.738a5.587 5.587 0 0 1-1.232.11c-2.382 0-3.77-1.096-3.77-4.099v-3.56h-.986v-2.6h.986v-2.136h3.213v2.136ZM191.124 23.714a4.92 4.92 0 0 0-.521 0c-1.56 0-2.081 1.132-2.081 2.656v4.463h-3.249V20.648h3.14v1.341a2.847 2.847 0 0 1 2.674-1.597l.037 3.322ZM209.14 20.648h1.689v2.6h-1.707v3.715c0 .913.593 1.096 1.25 1.096h.539v2.738a5.587 5.587 0 0 1-1.232.11c-2.392 0-3.779-1.096-3.779-4.099v-3.56h-.977v-2.6h.977v-2.136h3.222l.018 2.136ZM215.785 26.534a2.018 2.018 0 0 0 2.145 1.68 2.62 2.62 0 0 0 2.118-1.078l2.117 1.634a4.855 4.855 0 0 1-4.299 2.245c-2.793.174-5.193-1.962-5.366-4.746a4.672 4.672 0 0 1 0-.53c0-2.966 1.998-5.339 4.965-5.339 3.212 0 4.965 2.063 4.965 5.477v.63l-6.645.027Zm0-1.899h3.523a1.762 1.762 0 0 0-1.688-1.825 1.92 1.92 0 0 0-1.871 1.816h.036v.01ZM236.586 18.019a1.827 1.827 0 1 1 3.651-.2 1.827 1.827 0 0 1-1.725 1.925h-.101a1.726 1.726 0 0 1-1.825-1.625v-.1Zm3.432 12.778h-3.213v-10.15h3.231l-.018 10.15ZM252.931 29.273l1.826-1.753a3.185 3.185 0 0 0 2.236.913c.612 0 .913-.192.913-.557 0-1.159-4.619-.657-4.619-4.335 0-1.944 1.689-3.122 3.889-3.122a4.293 4.293 0 0 1 3.65 1.735l-2.081 1.642a2.42 2.42 0 0 0-1.679-.794c-.456 0-.73.192-.73.502 0 1.269 4.664.539 4.664 4.199 0 2.063-1.826 3.331-4.126 3.331a4.837 4.837 0 0 1-3.943-1.761ZM200.013 29.629a3.884 3.884 0 0 1-2.976 1.186 4.562 4.562 0 0 1-3.149-1.186 5.231 5.231 0 0 1-.438-7.393c.091-.1.192-.201.283-.301a4.702 4.702 0 0 1 3.405-1.388 3.365 3.365 0 0 1 2.829 1.269v-1.123h2.957v10.04h-2.866l-.045-1.104Zm-2.328-1.497a2.385 2.385 0 0 0 2.346-2.419v-.018a2.448 2.448 0 0 0-2.364-2.528h-.091a2.486 2.486 0 0 0-2.428 2.537 2.485 2.485 0 0 0 2.537 2.428ZM231.53 29.985a3.797 3.797 0 0 1-2.738 1.022c-2.921 0-4.774-2.181-4.774-5.312 0-3.13 2.045-5.303 4.947-5.303a3.813 3.813 0 0 1 2.738 1.04v-.784h3.003v9.693c0 3.742-2.601 4.91-5.604 4.91a8.563 8.563 0 0 1-3.733-.913l.913-2.464a6.845 6.845 0 0 0 2.793.62c1.195 0 2.391-.273 2.391-1.505l.064-1.004Zm-2.099-6.764a2.178 2.178 0 0 0-2.173 2.447 2.231 2.231 0 0 0 1.945 2.491c.082.01.155.018.237.018 1.269 0 2.172-.912 2.172-2.51a2.231 2.231 0 0 0-1.999-2.436c-.064 0-.118-.01-.182-.01ZM245.082 26.534a2.002 2.002 0 0 0 2.136 1.68c.84 0 1.625-.402 2.117-1.077l2.118 1.633a4.812 4.812 0 0 1-4.29 2.236 5.07 5.07 0 0 1-5.367-4.764 4.84 4.84 0 0 1 0-.511c0-2.966 2.008-5.34 4.966-5.34 3.221 0 4.974 2.063 4.974 5.477v.63l-6.645.036h-.009Zm0-1.898h3.532a1.757 1.757 0 0 0-1.697-1.826 1.934 1.934 0 0 0-1.88 1.817h.045v.009ZM62.659 30.752h-3.286V17.326h3.286v13.426ZM70.901 24.727a1.294 1.294 0 0 0-1.14-1.433c-.065 0-.129-.01-.192 0a1.322 1.322 0 0 0-1.388 1.268v6.198H64.97V20.656h3.14v1.04a3.012 3.012 0 0 1 2.537-1.296c3.158 0 3.468 2.739 3.468 4.756v5.604H70.9v-6.034ZM79.937 20.648h1.716v2.6h-1.716v3.715c0 .913.602 1.096 1.25 1.096h.539v2.738a5.583 5.583 0 0 1-1.233.11c-2.382 0-3.77-1.096-3.77-4.099v-3.56h-.976v-2.6h.986v-2.136h3.213v2.136h-.01ZM101.048 23.714a4.902 4.902 0 0 0-.52 0c-1.56 0-2.081 1.132-2.081 2.656v4.463h-3.213V20.648h3.14v1.341a2.847 2.847 0 0 1 2.674-1.597v3.322ZM130.291 20.648h1.715v2.6h-1.715v3.715c0 .913.602 1.096 1.25 1.096h.538v2.738a5.576 5.576 0 0 1-1.232.11c-2.382 0-3.769-1.096-3.769-4.099v-3.56h-.986v-2.6h.986v-2.136h3.213v2.136ZM133.796 18.019a1.827 1.827 0 1 1 3.651-.2 1.827 1.827 0 0 1-1.725 1.925h-.101a1.726 1.726 0 0 1-1.825-1.625v-.1Zm3.432 12.778h-3.213v-10.15h3.213v10.15ZM144.346 27.365l1.908-6.699h3.349L146.19 30.77h-3.733l-3.469-10.104h3.45l1.908 6.7ZM110.194 29.629a3.884 3.884 0 0 1-2.976 1.186 4.562 4.562 0 0 1-3.149-1.186 5.229 5.229 0 0 1-.146-7.694 4.665 4.665 0 0 1 3.35-1.388 3.364 3.364 0 0 1 2.829 1.269v-1.123h2.958v10.04h-2.866V29.63Zm-2.319-1.497a2.369 2.369 0 0 0 2.337-2.41v-.027a2.447 2.447 0 0 0-2.364-2.528h-.082a2.486 2.486 0 0 0-2.428 2.537 2.485 2.485 0 0 0 2.537 2.428ZM120.47 28.213a2.355 2.355 0 0 1-2.437-2.263v-.228a2.299 2.299 0 0 1 2.127-2.455h.183a2.66 2.66 0 0 1 2.026 1.077l2.117-1.643a4.82 4.82 0 0 0-4.18-2.227h-.119a5.074 5.074 0 0 0-5.375 4.755c-.01.173-.01.347 0 .53a5.012 5.012 0 0 0 4.298 5.193c.393.073.794.11 1.196.11.794 0 1.579-.193 2.291-.558a.498.498 0 0 0 .155-.082l.183-.1h.054l.22-.21a3.989 3.989 0 0 0 1.223-1.305l-2.118-1.643a2.618 2.618 0 0 1-1.844 1.059v-.01ZM153.328 26.598a2.008 2.008 0 0 0 2.127 1.68 2.62 2.62 0 0 0 2.117-1.077l2.145 1.633a4.812 4.812 0 0 1-4.29 2.236 5.068 5.068 0 0 1-5.366-4.764 4.358 4.358 0 0 1 0-.511c0-2.966 2.008-5.34 4.965-5.34 3.222 0 4.974 2.063 4.974 5.477v.63l-6.663.036h-.009Zm-.046-1.898h3.533a1.766 1.766 0 0 0-1.661-1.78 1.944 1.944 0 0 0-1.881 1.78h.009ZM86.699 26.534a2.002 2.002 0 0 0 2.135 1.68 2.62 2.62 0 0 0 2.118-1.078l2.136 1.634a4.844 4.844 0 0 1-4.281 2.245c-2.793.174-5.193-1.962-5.367-4.746a5.134 5.134 0 0 1 0-.53c0-2.966 1.999-5.339 4.965-5.339 3.213 0 4.966 2.063 4.966 5.477v.63l-6.672.027Zm0-1.908h3.523a1.76 1.76 0 0 0-1.68-1.825h-.009c-.986.046-1.78.84-1.834 1.825Z"/>
  <path fill="#CF202E" d="M21.741 16.239a3.685 3.685 0 0 1 0-5.203 3.685 3.685 0 0 1 5.203 0 3.658 3.658 0 0 1 .037 5.166l-.037.037c1.451-1.46 3.65-1.114 5.577-1.725 1.241-.402 4.143-1.99 4.5-1.953-.566-7-6.7-12.222-13.7-11.656A12.725 12.725 0 0 0 11.655 12.57c1.634-.137 3.204 2.017 4.792 2.51 1.898.593 3.787-.338 5.293 1.168v-.01ZM17.936 25.248l-2.601-2.602 2.601 2.602Z"/>
  <path fill="#F05730" d="M26.944 34.255a3.674 3.674 0 0 1 0 5.194 3.674 3.674 0 0 1-5.194 0 3.65 3.65 0 0 1-.027-5.166l.027-.028c-1.396 1.388-3.851.484-5.659 1.114-1.323.447-4.07 2.592-4.426 2.565.593 7.01 6.754 12.203 13.764 11.61 6.179-.52 11.089-5.431 11.61-11.61-1.69.146-3.05-2.027-4.674-2.547-1.853-.602-3.943.338-5.412-1.132h-.01Z"/>
  <path fill="#CF202E" d="m24.215 34.11 2.847-2.328-2.847 2.327ZM25.94 30.048l4.81-4.8-4.81 4.8ZM21.851 18.931l2.391-2.793-2.39 2.793Z"/>
  <path fill="#F9A21D" d="M44.96 16.239a12.59 12.59 0 0 0-7.94-3.651c.127 1.479-1.826 2.82-2.173 4.271-.557 2.072.128 4.19-1.497 5.814a3.674 3.674 0 0 1 5.194 0 3.674 3.674 0 0 1 0 5.194 3.65 3.65 0 0 1-5.166.027l-.028-.027c1.452 1.451.858 3.714 1.47 5.613.401 1.25 2.236 4.107 2.209 4.463 7.027-.648 12.193-6.873 11.545-13.9a12.798 12.798 0 0 0-3.614-7.786v-.027.009Z"/>
  <path fill="#E92941" d="M15.334 27.85a3.685 3.685 0 0 1-5.202 0 3.685 3.685 0 0 1 0-5.203 3.658 3.658 0 0 1 5.166-.037l.036.037c-1.479-1.479-1.123-3.578-1.725-5.476-.383-1.223-1.99-4.217-1.953-4.564C4.646 13.2-.547 19.36.046 26.37c.52 6.179 5.43 11.08 11.61 11.61-.137-1.634 1.752-3.268 2.236-4.847.593-1.953-.073-3.779 1.442-5.285Z"/>
  <path fill="url(#a)" d="m15.334 22.647 2.601 2.601 4.965-1.752 1.442-4.655-2.6-2.601a12.764 12.764 0 0 0-10.04-3.651 10.7 10.7 0 0 0-.101 1.086c0 3.368 1.341 6.599 3.733 8.972Z"/>
  <path fill="#CF202E" d="m21.777 21.395-3.843 3.852 3.843-3.852ZM24.343 18.84l-2.564 2.555 2.564-2.555ZM24.342 31.654l1.598-1.606-1.598 1.606Z"/>
  <path fill="url(#b)" d="m33.35 27.848-2.6-2.6L25.775 27l-1.433 4.654 2.602 2.602a12.678 12.678 0 0 0 10.04 3.65c0-.355.054-.712.054-1.067a12.67 12.67 0 0 0-3.687-8.99Z"/>
  <path fill="url(#c)" d="M37.021 12.56a10.463 10.463 0 0 0-1.068-.055 12.648 12.648 0 0 0-9.008 3.733l-11.61 11.61a12.677 12.677 0 0 0-3.65 10.04c.355 0 .711.055 1.076.055 3.377 0 6.626-1.342 9.009-3.733l11.582-11.564a12.684 12.684 0 0 0 3.67-10.086Z"/>
  <defs>
    <linearGradient id="a" x1="17.972" x2="17.972" y1="11.101" y2="31.318" gradientUnits="userSpaceOnUse">
      <stop stop-color="#E92941"/>
      <stop offset=".47" stop-color="#CF2030"/>
    </linearGradient>
    <linearGradient id="b" x1="30.686" x2="30.686" y1="40.918" y2="20.711" gradientUnits="userSpaceOnUse">
      <stop stop-color="#F58721"/>
      <stop offset=".44" stop-color="#F05625"/>
    </linearGradient>
    <linearGradient id="c" x1="11.547" x2="37.24" y1="25.22" y2="25.22" gradientUnits="userSpaceOnUse">
      <stop stop-color="#F05730"/>
      <stop offset="1" stop-color="#CF2030"/>
    </linearGradient>
  </defs>
</svg>
