<svg viewBox="0 0 101 135" fill="none" xmlns="http://www.w3.org/2000/svg">
<path d="M52.9423 9.88362L52.6099 0.770725C52.5948 0.347573 52.9272 -1.67787e-05 53.3353 -0.0151294C53.7584 -0.030242 54.106 0.302235 54.1211 0.710275C54.1211 0.725387 54.1211 0.755613 54.1211 0.770725L53.7887 9.88362C53.7887 10.1103 53.5922 10.2917 53.3504 10.2917C53.1237 10.2917 52.9575 10.1103 52.9423 9.88362Z" fill="#FF9D42"/>
<path d="M28.8533 39.7459L15.4484 25.6308C15.1613 25.3285 15.1764 24.8449 15.4786 24.5578C15.7809 24.2707 16.2645 24.2858 16.5516 24.588H16.5668L29.488 39.1717C29.6391 39.353 29.624 39.6099 29.4578 39.7611C29.2916 39.9122 29.0346 39.8971 28.8684 39.7308L28.8533 39.7459Z" fill="#FF9D42"/>
<path d="M35.3366 46.8186L32.0119 43.6903C31.7096 43.4032 31.6945 42.9196 31.9816 42.6173C32.2688 42.3151 32.7524 42.3 33.0546 42.5871C33.0848 42.6173 33.1151 42.6475 33.1302 42.6627L35.9562 46.2443C36.1074 46.4257 36.0771 46.6977 35.8807 46.8337C35.7144 46.9697 35.4726 46.9546 35.3366 46.8035V46.8186Z" fill="#FF9D42"/>
<path d="M42.6194 41.2271L26.7512 20.1602C26.4943 19.8277 26.5699 19.3592 26.9023 19.1023C27.2348 18.8454 27.7033 18.9209 27.9602 19.2534L43.2844 40.7284C43.4204 40.9249 43.3751 41.1818 43.1937 41.3178C43.0124 41.4538 42.7555 41.4085 42.6194 41.2271Z" fill="#FF9D42"/>
<path d="M37.3618 13.8279L34.7775 9.09765C34.581 8.73494 34.7171 8.26645 35.0798 8.06999C35.4425 7.87353 35.911 8.00954 36.1074 8.37224C36.1074 8.40247 36.1376 8.43269 36.1528 8.46292L38.1325 13.4652C38.2232 13.6768 38.1174 13.9337 37.8907 14.0092C37.6942 14.0848 37.4676 14.0092 37.3618 13.8128V13.8279Z" fill="#FF9D42"/>
<path d="M43.3457 26.553L39.5222 19.2082C39.3257 18.8304 39.4769 18.3771 39.8396 18.1957C40.2023 18.0143 40.6707 18.1504 40.8521 18.5131C40.8521 18.5282 40.8672 18.5433 40.8823 18.5735L44.1013 26.1903C44.192 26.4018 44.1013 26.6588 43.8746 26.7343C43.6782 26.825 43.4363 26.7343 43.3306 26.5378L43.3457 26.553Z" fill="#FF9D42"/>
<path d="M48.0301 20.7042L44.2973 5.50094C44.1915 5.0929 44.4484 4.68486 44.8564 4.59419C45.2645 4.50351 45.6725 4.74531 45.7632 5.15335V5.18358L48.8462 20.538C48.8915 20.7647 48.7404 20.9913 48.5137 21.0367C48.287 21.082 48.0754 20.946 48.015 20.7193L48.0301 20.7042Z" fill="#FF9D42"/>
<path d="M26.7361 50.0985L12.0164 40.7589C11.6688 40.5322 11.563 40.0637 11.7897 39.7161C12.0164 39.3685 12.4849 39.2627 12.8325 39.4894H12.8627L27.2197 49.4033C27.4161 49.5393 27.4615 49.7962 27.3255 49.9927C27.1894 50.174 26.9476 50.2345 26.7512 50.1136L26.7361 50.0985Z" fill="#FF9D42"/>
<path d="M21.8104 67.0544L1.60491 62.9287C1.19687 62.838 0.924844 62.4451 1.01552 62.037C1.1062 61.629 1.49912 61.357 1.90716 61.4476H1.93739L21.9918 66.2232C22.2185 66.2837 22.3545 66.5104 22.3092 66.7371C22.2638 66.9637 22.0371 67.0998 21.8104 67.0544Z" fill="#FF9D42"/>
<path d="M10.8688 53.4685L3.66014 50.9447C3.26721 50.8087 3.05564 50.3705 3.19165 49.9775C3.32766 49.5846 3.76593 49.373 4.15885 49.509C4.17397 49.509 4.20419 49.5241 4.21931 49.5393L11.1711 52.6827C11.3827 52.7734 11.4733 53.0303 11.3827 53.2418C11.292 53.4383 11.0653 53.529 10.8537 53.4685H10.8688Z" fill="#FF9D42"/>
<path d="M29.0186 60.7528L15.9463 55.8715C15.5533 55.7203 15.3569 55.2972 15.508 54.9043C15.6591 54.5113 16.0823 54.3149 16.4752 54.466H16.5054L29.3209 59.9821C29.5325 60.0728 29.6383 60.3146 29.5476 60.5413C29.4569 60.7528 29.2151 60.8435 29.0186 60.7679V60.7528Z" fill="#FF9D42"/>
<path d="M87.3083 29.0164L89.4392 26.2054C89.6961 25.873 90.1646 25.8125 90.4971 26.0543C90.8296 26.3112 90.89 26.7797 90.6482 27.1122C90.618 27.1575 90.5878 27.1877 90.5575 27.218L87.928 29.5755C87.7617 29.7267 87.4897 29.7115 87.3386 29.5453C87.2026 29.3942 87.2026 29.1675 87.3083 29.0013V29.0164Z" fill="#FF9D42"/>
<path d="M70.9109 46.8792L81.9884 34.8193C82.2755 34.5171 82.744 34.4868 83.0614 34.774C83.3636 35.0611 83.3939 35.5296 83.1067 35.847H83.0916L71.5305 47.4685C71.3642 47.6348 71.1073 47.6348 70.9411 47.4685C70.7748 47.3023 70.7748 47.0454 70.9411 46.8792H70.9109Z" fill="#FF9D42"/>
<path d="M66.135 37.8724L76.2907 23.455C76.5325 23.1074 77.001 23.0318 77.3486 23.2736C77.6962 23.5154 77.7717 23.9839 77.5299 24.3315V24.3617L66.8151 38.3862C66.6791 38.5675 66.4071 38.6129 66.2257 38.4618C66.0444 38.3257 66.0141 38.0688 66.135 37.8875V37.8724Z" fill="#FF9D42"/>
<path d="M65.2583 19.5103L72.0438 5.65211C72.2252 5.27429 72.6785 5.12316 73.0564 5.30452C73.4342 5.48587 73.5853 5.93924 73.4039 6.31706V6.34728L65.9988 19.9033C65.893 20.1149 65.6361 20.1753 65.4245 20.0695C65.228 19.9637 65.1525 19.7219 65.2431 19.5103H65.2583Z" fill="#FF9D42"/>
<path d="M61.285 27.2176L63.2497 22.6838C63.4159 22.306 63.8693 22.1246 64.2471 22.2909C64.6249 22.4571 64.8063 22.9105 64.64 23.2883C64.64 23.3185 64.6098 23.3488 64.5947 23.379L62.0407 27.6105C61.9198 27.807 61.6628 27.8674 61.4664 27.7465C61.285 27.6407 61.2095 27.414 61.3001 27.2176H61.285Z" fill="#FF9D42"/>
<path d="M57.8836 18.0899L61.2839 4.33743C61.3897 3.92939 61.7977 3.68759 62.2058 3.77827C62.6138 3.88406 62.8556 4.2921 62.7649 4.70014V4.73036L58.6996 18.3015C58.6392 18.5282 58.3974 18.6491 58.1707 18.5886C57.9591 18.5282 57.8231 18.3015 57.8836 18.0899Z" fill="#FF9D42"/>
<path d="M81.1725 49.0404L95.9979 38.8394C96.3455 38.5976 96.814 38.6883 97.0558 39.0358C97.2976 39.3834 97.2069 39.8519 96.8593 40.0937H96.8291L81.641 49.7507C81.4445 49.8716 81.1876 49.8111 81.0667 49.6147C80.9458 49.4182 80.9911 49.1764 81.1876 49.0404H81.1725Z" fill="#FF9D42"/>
<path d="M83.1066 67.7798L100.002 63.1704C100.411 63.0646 100.819 63.2913 100.924 63.6994C101.03 64.1074 100.803 64.5154 100.395 64.6212H100.365L83.3031 68.5807C83.0764 68.6261 82.8497 68.49 82.8044 68.2634C82.759 68.0367 82.8799 67.8251 83.1066 67.7646V67.7798Z" fill="#FF9D42"/>
<path d="M95.363 53.0753L99.9119 50.884C100.29 50.7026 100.743 50.8689 100.924 51.2316C101.106 51.6094 100.94 52.0627 100.577 52.2441C100.547 52.2441 100.516 52.2743 100.486 52.2743L95.6804 53.846C95.4537 53.9216 95.227 53.8007 95.1515 53.574C95.091 53.3775 95.1817 53.1509 95.363 53.0602V53.0753Z" fill="#FF9D42"/>
<path d="M79.1931 59.5589L91.7366 54.1637C92.1144 53.9975 92.5678 54.1637 92.734 54.5566C92.9002 54.9496 92.734 55.3878 92.3411 55.5541H92.3108L79.5256 60.3296C79.314 60.4052 79.0722 60.2994 78.9815 60.0878C78.906 59.8763 79.0118 59.6496 79.2082 59.5589H79.1931Z" fill="#FF9D42"/>
<path d="M66.4225 62.2789C64.7148 69.7596 62.5537 71.9358 61.3598 71.3011C61.2691 71.2558 54.272 78.0262 54.272 78.0262L57.1283 80.8825C59.909 83.6632 59.909 88.1667 57.1283 90.9475C55.7379 92.3378 53.9244 93.033 52.0958 93.033C50.2672 93.033 48.4537 92.3378 47.0633 90.9475C44.2826 88.1667 44.2826 83.6632 47.0633 80.8825L52.0958 75.85C52.0958 75.85 60.4682 67.8554 62.992 61.1303C63.0978 60.8281 63.2036 60.5258 63.2791 60.2236C63.3396 60.0422 63.4 59.8609 63.4454 59.6795C65.9087 49.9621 60.4228 38.8393 52.791 31.4341C54.3325 40.9399 52.5341 52.7731 45.5974 60.2236C43.2852 58.6821 44.3128 55.3422 45.0836 53.8007C37.6784 58.0625 33.3109 69.9259 37.0285 79.9908C33.734 77.2101 32.3134 73.5075 31.7089 69.4876C28.5655 75.2757 26.9485 81.8044 27.4321 87.8796C27.4321 87.8796 27.4169 87.8796 27.4018 87.8796C27.4018 88.0458 27.4472 88.2121 27.4623 88.3783C27.4925 88.6655 27.5378 88.9375 27.5681 89.2095C27.6285 89.6024 27.6739 89.9954 27.7494 90.3883C27.8401 90.8417 27.9308 91.3102 28.0366 91.7484C28.0819 91.9147 28.1272 92.096 28.1726 92.2623C28.2935 92.7308 28.4295 93.1841 28.5957 93.6375C29.7745 97.1739 31.7391 100.499 34.5501 103.294C39.235 107.979 45.4614 110.564 52.0807 110.564C58.7 110.564 64.9264 107.979 69.6113 103.294C73.5103 99.3954 75.9132 94.4234 76.6235 89.0584C76.6689 88.7713 76.6991 88.469 76.7293 88.1667C76.7293 88.061 76.7595 87.9552 76.7747 87.8494C77.621 79.0841 73.9033 69.3818 66.4225 62.2638V62.2789Z" fill="#F15730"/>
<path d="M61.3748 71.3013L54.2719 78.0264L52.0957 75.8502L58.3674 68.853L61.1179 71.1048" fill="url(#paint0_linear_455_858)"/>
<path opacity="0.8" d="M40.2027 82.0766C34.5506 79.2505 32.4953 74.626 31.7246 69.4727C30.168 79.2052 31.3921 89.9502 45.2957 92.5949C46.0815 93.4261 40.8072 82.0463 40.2179 82.0614L40.2027 82.0766Z" fill="url(#paint1_linear_455_858)"/>
<path d="M44.9012 54.2088C44.9617 54.0728 45.0221 53.9217 45.0826 53.8008C44.9919 53.8612 44.9012 53.9217 44.8105 53.9821L44.9012 54.2239V54.2088Z" fill="url(#paint2_linear_455_858)"/>
<path opacity="0.8" d="M46.6699 58.9843L49.103 67.8856C62.2661 56.8081 59.1378 41.8315 52.7905 31.4341C54.2413 40.4261 52.6998 51.5036 46.6699 58.9843Z" fill="url(#paint3_linear_455_858)"/>
<path opacity="0.8" d="M61.9041 71.4068L61.1484 72.3287L61.7832 90.7207C78.679 80.7313 68.9919 67.2055 66.4378 62.2788C65.1382 67.9914 63.3095 71.0592 61.9192 71.4068H61.9041Z" fill="url(#paint4_linear_455_858)"/>
<path opacity="0.8" d="M46.671 81.1092L49.9354 77.996C49.9354 77.996 46.3235 59.4227 45.5981 60.2236C43.2858 58.6821 44.3135 55.3423 45.0842 53.8008C39.2357 60.7072 38.5102 72.6915 46.671 81.1092Z" fill="url(#paint5_linear_455_858)"/>
<path d="M4.28012 85.5826C3.75118 84.7967 3.56983 83.8446 3.63028 82.7565C3.69073 81.6684 4.05343 80.4292 5.08109 79.1899L7.33286 80.6861C6.54701 81.5173 6.19942 82.7263 6.16919 83.1343C6.15408 83.5424 6.25987 83.8446 6.53189 83.8597C6.80392 83.8597 6.93993 83.5424 7.06083 83.2099C7.18174 82.8774 7.46887 82.1369 7.57466 81.8649C8.16405 80.5803 8.82901 79.7642 10.4007 79.8549C11.4284 79.9153 12.184 80.4896 12.6223 81.0639C13.0605 81.6684 13.3628 82.6205 13.2872 83.8748C13.2117 85.1292 12.6978 86.3835 11.9724 87.1694L9.85666 85.8697C10.5216 85.1896 10.8541 84.1771 10.8843 83.6784C10.9145 83.1948 10.8239 82.9076 10.5367 82.8925C10.2647 82.8925 10.1438 83.3157 10.0682 83.5273C9.99268 83.7388 9.79621 84.3131 9.6602 84.6305C9.10103 86.0208 8.3454 87.0183 6.68302 86.9427C5.7007 86.8822 4.83928 86.3684 4.29523 85.5826H4.28012Z" fill="white"/>
<path d="M3.82617 90.5546L13.1204 88.9829L14.2387 95.5871L11.8358 95.9952L11.2313 92.4286L10.2188 92.5948L10.7931 95.9649L8.40529 96.373L7.83101 93.0029L6.75801 93.1842L7.39274 96.8868L4.97473 97.2948L3.82617 90.5546Z" fill="white"/>
<path d="M7.80022 105.622C6.697 103.037 7.40729 100.302 10.2938 99.0629C13.1803 97.8388 15.6437 99.2291 16.7469 101.813C17.5781 103.763 17.1549 105.047 17.1549 105.047L14.4498 105.304C14.4498 105.304 14.8276 104.11 14.3742 103.037C13.9208 101.964 12.8932 101.315 11.5481 101.904C10.2031 102.478 10.0218 103.718 10.4449 104.715C10.8681 105.712 11.5784 106.241 12.1224 106.453L10.2031 108.236C9.74974 108.055 8.60118 107.511 7.80022 105.622Z" fill="white"/>
<path d="M14.2379 115.853L15.8398 112.755L15.598 112.438L13.0893 114.342L11.2305 111.879L18.7414 106.181L21.2199 109.445C21.9151 110.367 22.2929 111.199 22.3231 112.03C22.3533 112.861 21.9906 113.737 21.1746 114.357C19.6482 115.506 18.4089 115.007 17.9556 114.826L16.3839 118.679L14.2379 115.853ZM19.4819 111.304C19.4819 111.123 19.4215 110.927 19.2099 110.654L18.7414 110.035L17.4417 111.032L17.9102 111.652C18.2276 112.075 18.6961 112.347 19.1797 111.969C19.5122 111.727 19.4971 111.471 19.4819 111.304Z" fill="white"/>
<path d="M18.9395 121.082L24.9089 113.783L30.0925 118.014L28.5511 119.903L25.7401 117.606L25.0903 118.407L27.735 120.568L26.2086 122.442L23.5639 120.281L22.8687 121.127L25.7855 123.5L24.2289 125.404L18.9395 121.082Z" fill="white"/>
<path d="M34.9735 123.379L31.8301 129.666L29.0645 128.291L32.2079 122.004L30.2281 121.006L31.3011 118.86L38.0413 122.23L36.9683 124.376L34.9735 123.379Z" fill="white"/>
<path d="M47.9406 133.308C47.1245 133.776 46.1573 133.867 45.0692 133.716C43.9811 133.565 42.7872 133.096 41.6387 131.963L43.3162 129.847C44.0718 130.693 45.2657 131.147 45.6586 131.207C46.0667 131.268 46.3689 131.177 46.3991 130.905C46.4445 130.633 46.112 130.482 45.7946 130.331C45.4773 130.195 44.767 129.847 44.495 129.711C43.2708 129.016 42.5152 128.291 42.7268 126.734C42.8628 125.721 43.5126 125.011 44.1323 124.618C44.767 124.225 45.7493 124.014 46.9885 124.195C48.2278 124.376 49.4368 124.996 50.1622 125.782L48.6963 127.792C48.0766 127.066 47.0943 126.658 46.5956 126.583C46.0969 126.507 45.8249 126.583 45.7795 126.855C45.7493 127.127 46.1573 127.278 46.3689 127.384C46.5805 127.474 47.1245 127.716 47.4268 127.883C48.7718 128.547 49.6937 129.394 49.467 131.041C49.331 132.023 48.7416 132.824 47.9104 133.308H47.9406Z" fill="white"/>
<path d="M58.6697 133.656L58.171 132.371L55.496 132.643L55.2845 134.003L52.0957 134.321L54.4079 124.619L57.8083 124.271L62.0247 133.308L58.6999 133.641L58.6697 133.656ZM56.3423 127.641L55.9041 130.225L57.2944 130.089L56.3423 127.641Z" fill="white"/>
<path d="M71.8789 128.925C71.486 129.802 70.6095 130.588 69.204 131.117C67.7985 131.646 66.6197 131.63 65.7432 131.237C64.8667 130.845 64.232 130.134 63.703 128.729L61.7988 123.681L64.7004 122.593L66.65 127.762C66.9371 128.517 67.4358 128.925 68.2519 128.608C69.068 128.291 69.1587 127.671 68.8866 126.915L66.9371 121.747L69.8538 120.644L71.758 125.691C72.287 127.097 72.287 128.049 71.8789 128.925Z" fill="white"/>
<path d="M80.9612 124.739C78.6792 126.356 75.838 126.265 74.0245 123.696C72.211 121.127 73.0422 118.422 75.3242 116.805C77.0471 115.581 78.4072 115.717 78.4072 115.717L79.2384 118.301C79.2384 118.301 77.984 118.18 77.0319 118.86C76.0798 119.54 75.6718 120.674 76.5181 121.868C77.3644 123.062 78.6188 122.971 79.5104 122.351C80.4021 121.717 80.7496 120.916 80.8554 120.341L83.0014 121.838C82.9258 122.306 82.6387 123.56 80.9612 124.739Z" fill="white"/>
<path d="M86.2953 120.085L79.2227 113.858L83.6355 108.826L85.4642 110.428L83.0764 113.148L83.8471 113.828L86.0989 111.259L87.9124 112.861L85.6606 115.43L86.4767 116.155L88.9552 113.329L90.7989 114.946L86.2953 120.069V120.085Z" fill="white"/>
<path d="M97.5385 102.902C96.4958 105.501 94.0475 106.937 91.1308 105.758C88.214 104.579 87.4735 101.844 88.5163 99.2444C89.3173 97.2798 90.5112 96.6602 90.5112 96.6602L92.6118 98.3981C92.6118 98.3981 91.4935 98.9724 91.0552 100.045C90.617 101.118 90.8739 102.297 92.2491 102.856C93.6092 103.4 94.6067 102.66 95.0147 101.647C95.4228 100.635 95.2867 99.7734 95.0601 99.2293L97.6745 99.3351C97.8559 99.7734 98.2941 100.982 97.5234 102.887L97.5385 102.902Z" fill="white"/>
<path d="M100.32 91.5367C99.9727 94.4535 97.9325 96.403 94.8798 96.0403C91.827 95.6776 90.3007 93.2898 90.6482 90.3731C90.9958 87.4563 93.0511 85.5068 96.1039 85.8695C99.1566 86.2322 100.668 88.62 100.32 91.5367ZM93.2476 90.6753C93.0965 91.8994 93.8975 92.7911 95.182 92.9422C96.4666 93.0933 97.464 92.4133 97.6 91.2043C97.736 89.9953 96.9502 89.1036 95.6505 88.9525C94.3659 88.8014 93.3685 89.4663 93.2325 90.6753H93.2476Z" fill="white"/>
<path d="M100.471 81.3962C100.562 82.3937 100.093 83.1191 99.141 83.1946C98.1889 83.2702 97.5995 82.6355 97.5088 81.6531C97.4182 80.6708 97.9018 79.9454 98.8539 79.8699C99.806 79.7943 100.38 80.429 100.471 81.3962Z" fill="white"/>
<defs>
<linearGradient id="paint0_linear_455_858" x1="57.3247" y1="74.2784" x2="52.8362" y2="68.9286" gradientUnits="userSpaceOnUse">
<stop stop-color="#F15730"/>
<stop offset="0.01" stop-color="#F05530"/>
<stop offset="0.22" stop-color="#E13D30"/>
<stop offset="0.45" stop-color="#D72D30"/>
<stop offset="0.69" stop-color="#D12330"/>
<stop offset="1" stop-color="#D02030"/>
</linearGradient>
<linearGradient id="paint1_linear_455_858" x1="30.5005" y1="81.064" x2="43.9355" y2="81.064" gradientUnits="userSpaceOnUse">
<stop stop-color="#D02030"/>
<stop offset="0.07" stop-color="#D32630"/>
<stop offset="0.43" stop-color="#E34030"/>
<stop offset="0.75" stop-color="#ED5130"/>
<stop offset="1" stop-color="#F15730"/>
</linearGradient>
<linearGradient id="paint2_linear_455_858" x1="44.8105" y1="54.0124" x2="45.0826" y2="54.0124" gradientUnits="userSpaceOnUse">
<stop offset="0.48" stop-color="#F15730"/>
<stop offset="1" stop-color="#D02030"/>
</linearGradient>
<linearGradient id="paint3_linear_455_858" x1="45.7178" y1="50.4608" x2="57.8079" y2="48.6171" gradientUnits="userSpaceOnUse">
<stop offset="0.31" stop-color="#F15730"/>
<stop offset="1" stop-color="#D02030"/>
</linearGradient>
<linearGradient id="paint4_linear_455_858" x1="61.1484" y1="76.4998" x2="71.5157" y2="76.4998" gradientUnits="userSpaceOnUse">
<stop stop-color="#F15730"/>
<stop offset="1" stop-color="#D02030"/>
</linearGradient>
<linearGradient id="paint5_linear_455_858" x1="40.626" y1="67.4626" x2="46.5955" y2="67.4626" gradientUnits="userSpaceOnUse">
<stop stop-color="#D02030"/>
<stop offset="0.07" stop-color="#D32630"/>
<stop offset="0.43" stop-color="#E34030"/>
<stop offset="0.75" stop-color="#ED5130"/>
<stop offset="1" stop-color="#F15730"/>
</linearGradient>
</defs>
</svg>
