<svg xmlns="http://www.w3.org/2000/svg" xml:space="preserve" id="Layer_1" x="0" y="0" style="enable-background:new 0 0 80 80" version="1.1" viewBox="0 0 80 80">
  <style>
    .st0{fill:none}.st1{fill:#cf2030}
  </style>
  <path d="m47 40 2.8 2.9c1.6 1.6 4.1 1.6 5.7 0 1.6-1.6 1.6-4.1 0-5.7-1.6-1.6-4.1-1.6-5.7 0M42.9 30.2c1.6-1.6 1.6-4.1 0-5.7-1.6-1.6-4.1-1.6-5.7 0-1.6 1.6-1.6 4.1 0 5.7L40 33M37.2 49.9c-1.6 1.6-1.6 4.1 0 5.7 1.6 1.6 4.1 1.6 5.7 0 1.6-1.6 1.6-4.1 0-5.7L40 47M33 40l-2.8-2.8c-1.6-1.6-4.1-1.6-5.7 0-1.6 1.6-1.6 4.1 0 5.7 1.6 1.6 4.1 1.6 5.7 0" class="st0"/>
  <path d="M37.2 30.2c-1.6-1.6-1.6-4.1 0-5.7 1.6-1.6 4.1-1.6 5.7 0 1.6 1.6 1.6 4.1 0 5.7 1.6-1.6 4-1.2 6.1-1.9 1.4-.4 4.5-2.2 4.9-2.1-.6-7.7-7.3-13.4-15-12.8-6.8.5-12.2 6-12.8 12.8 1.8-.1 3.5 2.2 5.2 2.8 2.2.5 4.2-.5 5.9 1.2zM33 40l-2.8-2.8zM49.9 37.2" class="st1"/>
  <path d="M47 40" class="st0"/>
  <path d="M42.9 49.9c1.6 1.6 1.6 4.1 0 5.7-1.6 1.6-4.1 1.6-5.7 0-1.6-1.6-1.6-4.1 0-5.7-1.5 1.5-4.2.5-6.2 1.2-1.5.5-4.5 2.8-4.9 2.8.7 7.7 7.4 13.4 15.1 12.7 6.8-.6 12.1-5.9 12.7-12.7-1.8.2-3.3-2.2-5.1-2.8-2-.6-4.3.4-5.9-1.2z" style="fill:#f05730"/>
  <path d="M33 40" class="st0"/>
  <path d="M33 40zM47 40zM42.9 30.2" class="st1"/>
  <path d="M40 33" class="st0"/>
  <path d="M41.8 45.3 47 40zM37.2 49.9" class="st1"/>
  <path d="M40 47" class="st0"/>
  <path d="M62.6 30.2c-2.3-2.3-5.4-3.7-8.7-4 .1 1.6-2 3.1-2.4 4.7-.6 2.3.1 4.6-1.6 6.4 1.6-1.6 4.1-1.6 5.7 0s1.6 4.1 0 5.7c-1.6 1.6-4.1 1.6-5.7 0 1.6 1.6.9 4.1 1.6 6.2.4 1.4 2.5 4.5 2.4 4.9 7.7-.7 13.4-7.5 12.7-15.2-.3-3.4-1.7-6.4-4-8.7z" style="fill:#f9a21d"/>
  <path d="M30.2 42.9c-1.6 1.6-4.1 1.6-5.7 0-1.6-1.6-1.6-4.1 0-5.7 1.6-1.6 4.1-1.6 5.7 0-1.6-1.6-1.2-3.9-1.9-6-.4-1.3-2.2-4.6-2.1-5-7.7.7-13.4 7.4-12.7 15.1C14 48 19.4 53.4 26.1 54c-.1-1.8 1.9-3.6 2.4-5.3.7-2.2 0-4.2 1.7-5.8z" style="fill:#e92941"/>
  <linearGradient id="SVGID_1_" x1="-5060.701" x2="-5060.701" y1="-148.035" y2="-170.185" gradientTransform="matrix(1 0 0 -1 5093.75 -123.51)" gradientUnits="userSpaceOnUse">
    <stop offset="0" style="stop-color:#e92941"/>
    <stop offset=".47" style="stop-color:#cf2030"/>
  </linearGradient>
  <path d="M30.2 37.2 33 40l5.4-1.9L40 33l-2.8-2.9c-2.9-2.9-6.9-4.3-11-4-.1.4-.1.8-.1 1.2 0 3.7 1.4 7.3 4.1 9.9z" style="fill:url(#SVGID_1_)"/>
  <path d="M37.2 35.8 33 40z" class="st1"/>
  <path d="M33 40" class="st0"/>
  <path d="M40 47zM40 33zM40 33l-2.8 2.8L40 33zM40 47l1.8-1.7L40 47z" class="st1"/>
  <linearGradient id="SVGID_00000018220354205753335600000018244158009074964141_" x1="12265.744" x2="12265.744" y1="596.235" y2="574.095" gradientTransform="matrix(-1 0 0 1 12312.728 -539.04)" gradientUnits="userSpaceOnUse">
    <stop offset="0" style="stop-color:#f58721"/>
    <stop offset=".44" style="stop-color:#f05625"/>
  </linearGradient>
  <path d="M49.9 42.9 47 40l-5.5 1.9L40 47l2.9 2.8c2.9 2.9 6.9 4.4 11 4 0-.4.1-.8.1-1.2 0-3.6-1.5-7.1-4.1-9.7z" style="fill:url(#SVGID_00000018220354205753335600000018244158009074964141_)"/>
  <linearGradient id="SVGID_00000009590281583245727760000014082821835170797485_" x1="-5067.741" x2="-5039.591" y1="-163.51" y2="-163.51" gradientTransform="matrix(1 0 0 -1 5093.75 -123.51)" gradientUnits="userSpaceOnUse">
    <stop offset="0" style="stop-color:#f05730"/>
    <stop offset="1" style="stop-color:#cf2030"/>
  </linearGradient>
  <path d="M53.9 26.1c-.4 0-.8-.1-1.2-.1-3.7 0-7.3 1.5-9.9 4.1L30.2 42.9c-2.9 2.9-4.3 6.9-4 11 .4 0 .8.1 1.2.1 3.7 0 7.3-1.5 9.9-4.1L50 37.2c2.8-2.9 4.3-7 3.9-11.1z" style="fill:url(#SVGID_00000009590281583245727760000014082821835170797485_)"/>
</svg>
